<svg width="88" height="88" viewBox="0 0 88 88" fill="none" xmlns="http://www.w3.org/2000/svg">
<path opacity="0.7" d="M88 44C88 68.3008 68.3008 88 44 88C19.6992 88 0 68.3008 0 44C0 19.6992 19.6992 0 44 0C68.3008 0 88 19.6992 88 44Z" fill="#878787"/>
<path d="M40.827 73.7333C44.4579 70.2925 46.0679 65.5391 46.0679 65.5391L40.2161 60.5708C40.2161 60.5708 33.0255 46.757 33.0698 46.7919C17.0156 28.1227 29.1355 2.81073 29.2725 2.52539C12.2166 8.58398 0 24.8665 0 44.0003C0 66.6469 17.113 85.298 39.111 87.7318C36.2448 83.3906 36.8981 77.4575 40.827 73.7333Z" fill="#878787"/>
<g clip-path="url(#clip0)">
<path d="M38.5 63.8337C40.341 63.8337 41.8334 62.3413 41.8334 60.5003C41.8334 58.6594 40.341 57.167 38.5 57.167C36.6591 57.167 35.1667 58.6594 35.1667 60.5003C35.1667 62.3413 36.6591 63.8337 38.5 63.8337Z" stroke="white" stroke-width="3" stroke-linecap="round" stroke-linejoin="round"/>
<path d="M58.6666 63.8337C60.5076 63.8337 62 62.3413 62 60.5003C62 58.6594 60.5076 57.167 58.6666 57.167C56.8257 57.167 55.3333 58.6594 55.3333 60.5003C55.3333 62.3413 56.8257 63.8337 58.6666 63.8337Z" stroke="white" stroke-width="3" stroke-linecap="round" stroke-linejoin="round"/>
<path d="M23.8333 23.833H31.1666L36.08 48.3813C36.2476 49.2254 36.7068 49.9836 37.3771 50.5232C38.0475 51.0628 38.8863 51.3495 39.7466 51.333H57.5666C58.427 51.3495 59.2658 51.0628 59.9361 50.5232C60.6065 49.9836 61.0657 49.2254 61.2333 48.3813L64.1666 32.9997H33" stroke="white" stroke-width="4" stroke-linecap="round" stroke-linejoin="round"/>
</g>
<defs>
<clipPath id="clip0">
<rect width="44" height="44" fill="white" transform="translate(22 22)"/>
</clipPath>
</defs>
</svg>
