<svg width="53" height="70" viewBox="0 0 53 70" fill="none" xmlns="http://www.w3.org/2000/svg">
<circle cx="26.5" cy="26.5" r="26" stroke="#C7C7C7"/>
<path stroke="#A3A3A3" d="M13.7572 59.73H16.1072V59H10.6072V59.73H12.9572V66H13.7572V59.73ZM22.012 63.41C22.012 63.0433 21.9454 62.6967 21.812 62.37C21.6787 62.0433 21.492 61.76 21.252 61.52C21.012 61.2733 20.7254 61.08 20.392 60.94C20.0654 60.7933 19.7087 60.72 19.322 60.72C18.9287 60.72 18.5654 60.7933 18.232 60.94C17.9054 61.08 17.622 61.2733 17.382 61.52C17.142 61.7667 16.9554 62.0567 16.822 62.39C16.6887 62.7167 16.622 63.0633 16.622 63.43C16.622 63.7967 16.6887 64.1433 16.822 64.47C16.9554 64.7967 17.142 65.0833 17.382 65.33C17.622 65.57 17.9054 65.7633 18.232 65.91C18.5587 66.05 18.9154 66.12 19.302 66.12C19.6887 66.12 20.0487 66.05 20.382 65.91C20.7154 65.7633 21.002 65.5667 21.242 65.32C21.482 65.0733 21.6687 64.7867 21.802 64.46C21.942 64.1267 22.012 63.7767 22.012 63.41ZM21.222 63.43C21.222 63.71 21.1754 63.9733 21.082 64.22C20.9887 64.46 20.8587 64.67 20.692 64.85C20.5254 65.03 20.3254 65.1733 20.092 65.28C19.8587 65.38 19.602 65.43 19.322 65.43C19.0487 65.43 18.7954 65.3767 18.562 65.27C18.3287 65.1633 18.1254 65.02 17.952 64.84C17.7854 64.66 17.652 64.4467 17.552 64.2C17.4587 63.9533 17.412 63.69 17.412 63.41C17.412 63.13 17.4587 62.87 17.552 62.63C17.6454 62.3833 17.772 62.17 17.932 61.99C18.0987 61.8033 18.2987 61.66 18.532 61.56C18.7654 61.4533 19.022 61.4 19.302 61.4C19.5754 61.4 19.8287 61.4533 20.062 61.56C20.2954 61.6667 20.4987 61.8133 20.672 62C20.8454 62.18 20.9787 62.3933 21.072 62.64C21.172 62.8867 21.222 63.15 21.222 63.43ZM29.0769 66V58.7H28.3069V61.82C28.2069 61.6733 28.0902 61.5333 27.9569 61.4C27.8302 61.2667 27.6869 61.15 27.5269 61.05C27.3669 60.95 27.1869 60.87 26.9869 60.81C26.7869 60.75 26.5669 60.72 26.3269 60.72C26.0135 60.72 25.7102 60.7833 25.4169 60.91C25.1235 61.03 24.8602 61.2067 24.6269 61.44C24.3935 61.6667 24.2069 61.9467 24.0669 62.28C23.9269 62.6133 23.8569 62.9933 23.8569 63.42C23.8569 63.8467 23.9269 64.2267 24.0669 64.56C24.2069 64.8933 24.3935 65.1767 24.6269 65.41C24.8602 65.6367 25.1235 65.81 25.4169 65.93C25.7102 66.05 26.0135 66.11 26.3269 66.11C26.5669 66.11 26.7835 66.08 26.9769 66.02C27.1769 65.96 27.3569 65.8767 27.5169 65.77C27.6769 65.6633 27.8202 65.54 27.9469 65.4C28.0802 65.26 28.2002 65.1133 28.3069 64.96V66H29.0769ZM28.3369 63.41C28.3369 63.71 28.2835 63.9867 28.1769 64.24C28.0769 64.4867 27.9369 64.6967 27.7569 64.87C27.5835 65.0433 27.3835 65.18 27.1569 65.28C26.9369 65.3733 26.7069 65.42 26.4669 65.42C26.2202 65.42 25.9869 65.3733 25.7669 65.28C25.5469 65.1867 25.3535 65.0533 25.1869 64.88C25.0202 64.7 24.8869 64.4867 24.7869 64.24C24.6935 63.9933 24.6469 63.7167 24.6469 63.41C24.6469 63.0967 24.6935 62.8167 24.7869 62.57C24.8869 62.3167 25.0169 62.1067 25.1769 61.94C25.3435 61.7667 25.5369 61.6367 25.7569 61.55C25.9769 61.4567 26.2135 61.41 26.4669 61.41C26.7069 61.41 26.9369 61.46 27.1569 61.56C27.3835 61.6533 27.5835 61.7867 27.7569 61.96C27.9369 62.1333 28.0769 62.3433 28.1769 62.59C28.2835 62.8367 28.3369 63.11 28.3369 63.41ZM36.6175 63.41C36.6175 63.0433 36.5508 62.6967 36.4175 62.37C36.2842 62.0433 36.0975 61.76 35.8575 61.52C35.6175 61.2733 35.3308 61.08 34.9975 60.94C34.6708 60.7933 34.3142 60.72 33.9275 60.72C33.5342 60.72 33.1708 60.7933 32.8375 60.94C32.5108 61.08 32.2275 61.2733 31.9875 61.52C31.7475 61.7667 31.5608 62.0567 31.4275 62.39C31.2942 62.7167 31.2275 63.0633 31.2275 63.43C31.2275 63.7967 31.2942 64.1433 31.4275 64.47C31.5608 64.7967 31.7475 65.0833 31.9875 65.33C32.2275 65.57 32.5108 65.7633 32.8375 65.91C33.1642 66.05 33.5208 66.12 33.9075 66.12C34.2942 66.12 34.6542 66.05 34.9875 65.91C35.3208 65.7633 35.6075 65.5667 35.8475 65.32C36.0875 65.0733 36.2742 64.7867 36.4075 64.46C36.5475 64.1267 36.6175 63.7767 36.6175 63.41ZM35.8275 63.43C35.8275 63.71 35.7808 63.9733 35.6875 64.22C35.5942 64.46 35.4642 64.67 35.2975 64.85C35.1308 65.03 34.9308 65.1733 34.6975 65.28C34.4642 65.38 34.2075 65.43 33.9275 65.43C33.6542 65.43 33.4008 65.3767 33.1675 65.27C32.9342 65.1633 32.7308 65.02 32.5575 64.84C32.3908 64.66 32.2575 64.4467 32.1575 64.2C32.0642 63.9533 32.0175 63.69 32.0175 63.41C32.0175 63.13 32.0642 62.87 32.1575 62.63C32.2508 62.3833 32.3775 62.17 32.5375 61.99C32.7042 61.8033 32.9042 61.66 33.1375 61.56C33.3708 61.4533 33.6275 61.4 33.9075 61.4C34.1808 61.4 34.4342 61.4533 34.6675 61.56C34.9008 61.6667 35.1042 61.8133 35.2775 62C35.4508 62.18 35.5842 62.3933 35.6775 62.64C35.7775 62.8867 35.8275 63.15 35.8275 63.43ZM42.3123 64.55V64.53C42.3123 64.2967 42.2623 64.1 42.1623 63.94C42.069 63.78 41.9423 63.6433 41.7823 63.53C41.6223 63.4167 41.4423 63.3233 41.2423 63.25C41.049 63.1767 40.8523 63.11 40.6523 63.05C40.479 62.9967 40.3123 62.9433 40.1523 62.89C39.9923 62.8367 39.849 62.7767 39.7223 62.71C39.6023 62.6433 39.5057 62.5667 39.4323 62.48C39.359 62.3867 39.3223 62.28 39.3223 62.16V62.14C39.3223 61.9267 39.4123 61.75 39.5923 61.61C39.7723 61.4633 40.0157 61.39 40.3223 61.39C40.5757 61.39 40.8323 61.4367 41.0923 61.53C41.359 61.6167 41.6123 61.7367 41.8523 61.89L42.2023 61.31C41.9357 61.1367 41.639 61 41.3123 60.9C40.9857 60.7933 40.6623 60.74 40.3423 60.74C40.089 60.74 39.8523 60.7767 39.6323 60.85C39.419 60.9167 39.2323 61.0167 39.0723 61.15C38.919 61.2767 38.799 61.4333 38.7123 61.62C38.6257 61.8 38.5823 62 38.5823 62.22V62.24C38.5823 62.48 38.6323 62.68 38.7323 62.84C38.839 63 38.9723 63.1333 39.1323 63.24C39.299 63.3467 39.4823 63.4367 39.6823 63.51C39.889 63.5767 40.0923 63.64 40.2923 63.7C40.459 63.7467 40.619 63.7967 40.7723 63.85C40.9323 63.9033 41.0723 63.9667 41.1923 64.04C41.3123 64.1067 41.4057 64.1867 41.4723 64.28C41.5457 64.3733 41.5823 64.4833 41.5823 64.61V64.63C41.5823 64.8833 41.4823 65.0833 41.2823 65.23C41.0823 65.3767 40.8257 65.45 40.5123 65.45C40.2057 65.45 39.899 65.3933 39.5923 65.28C39.2923 65.1667 39.0023 65.0033 38.7223 64.79L38.3323 65.34C38.6257 65.5733 38.9623 65.76 39.3423 65.9C39.7223 66.0333 40.099 66.1 40.4723 66.1C40.7323 66.1 40.9723 66.0667 41.1923 66C41.419 65.9267 41.6123 65.8233 41.7723 65.69C41.939 65.5567 42.069 65.3967 42.1623 65.21C42.2623 65.0167 42.3123 64.7967 42.3123 64.55Z" fill="#A3A3A3"/>
<rect stroke="#A3A3A3" x="18" y="19" width="16" height="1.5" rx="0.75" fill="#A3A3A3"/>
<rect stroke="#A3A3A3" x="18" y="26" width="16" height="1.5" rx="0.75" fill="#A3A3A3"/>
<rect stroke="#A3A3A3" x="18" y="33" width="16" height="1.5" rx="0.75" fill="#A3A3A3"/>
</svg>
