<svg width="53" height="70" viewBox="0 0 53 70" fill="none" xmlns="http://www.w3.org/2000/svg">
<circle cx="26.5" cy="26.5" r="26" stroke="#A3A3A3"/>
<g clip-path="url(#clip0)">
<path stroke="#A3A3A3" d="M40 25H13.3333V13.76C13.3333 13 14.04 12.3333 14.8466 12.3333H17.6333C18.42 12.3333 19.0533 12.9733 19.06 13.7533C17.76 14.08 16.6667 15.28 16.6667 16.5466V18.3333C16.6667 18.7 16.9667 19 17.3334 19H22C22.3667 19 22.6667 18.7 22.6667 18.3333V16.5467C22.6667 15.26 21.6467 14.08 20.3934 13.76C20.3934 12.24 19.1601 11 17.6334 11H14.8467C13.3067 11 12 12.2667 12 13.76V25C10.9 24.9933 10.0067 25.8867 10 26.9867C10 27.56 10.24 28.1 10.6667 28.48V31.9733C10.6667 34.6866 11.8734 37.0133 13.8267 38.5266L12.7334 40.6999C12.5667 41.0266 12.7001 41.4266 13.0334 41.5932C13.3601 41.7599 13.7601 41.6266 13.9267 41.2932L14.9534 39.2466C16.3001 39.9666 17.8067 40.3399 19.3334 40.3266H32.6667C34.1934 40.3399 35.7 39.9666 37.0467 39.2466L38.0734 41.2932C38.2401 41.6199 38.6401 41.7532 38.9667 41.5932C39.2934 41.4332 39.4267 41.0266 39.2667 40.6999L38.1734 38.5199C40.1267 37.0132 41.3334 34.6799 41.3334 31.9666V28.4733C41.7534 28.1066 42.0001 27.5666 42.0001 27C42 25.8934 41.1067 25 40 25ZM19.7267 15C20.52 15 21.3334 15.78 21.3334 16.5467V17.6667H18V16.5467C18 15.8067 18.9 15 19.7267 15ZM40 31.9734C40 35.9801 36.8467 39.0001 32.6667 39.0001H19.3333C15.1533 39 12 35.98 12 31.9734V29.0001H40V31.9734ZM40 27.6667H12.02C11.6867 27.6667 11.3867 27.4267 11.34 27.1C11.28 26.6867 11.6 26.3333 12 26.3333H39.98C40.3133 26.3333 40.6133 26.5733 40.66 26.9C40.72 27.3134 40.4 27.6667 40 27.6667Z" fill="#A3A3A3"/>
</g>
<path stroke="#A3A3A3" d="M10.0916 67H13.2016C14.7316 67 15.7416 66.29 15.7416 65.09V65.07C15.7416 64.12 15.0716 63.62 14.2416 63.38C14.7916 63.14 15.3516 62.67 15.3516 61.76V61.74C15.3516 61.31 15.2016 60.93 14.9016 60.62C14.5016 60.23 13.8716 60 13.0716 60H10.0916V67ZM14.5516 61.87C14.5516 62.7 13.9016 63.12 12.9416 63.12H10.8716V60.71H13.0016C14.0016 60.71 14.5516 61.16 14.5516 61.85V61.87ZM14.9416 65.04C14.9416 65.83 14.2916 66.29 13.2216 66.29H10.8716V63.82H13.0816C14.3116 63.82 14.9416 64.26 14.9416 65.02V65.04ZM19.4684 67.11C20.3884 67.11 20.9784 66.69 21.3384 66.22V67H22.0784V63.84C22.0784 63.19 21.8984 62.68 21.5484 62.33C21.1684 61.95 20.6084 61.76 19.8784 61.76C19.1184 61.76 18.5684 61.92 17.9984 62.19L18.2284 62.82C18.7084 62.59 19.1884 62.44 19.7984 62.44C20.7684 62.44 21.3384 62.92 21.3384 63.85V64.03C20.8684 63.9 20.4184 63.81 19.7484 63.81C18.4384 63.81 17.5384 64.4 17.5384 65.48V65.5C17.5384 66.57 18.5084 67.11 19.4684 67.11ZM19.6184 66.5C18.9284 66.5 18.3184 66.12 18.3184 65.47V65.45C18.3184 64.8 18.8584 64.38 19.8284 64.38C20.4684 64.38 20.9584 64.49 21.3484 64.6V65.1C21.3484 65.92 20.5784 66.5 19.6184 66.5ZM24.4694 67H25.2394V64.04C25.2394 63.07 25.8994 62.42 26.7894 62.42C27.7094 62.42 28.2194 63.02 28.2194 63.98V67H28.9894V63.79C28.9894 62.56 28.2494 61.72 27.0094 61.72C26.1194 61.72 25.5894 62.17 25.2394 62.73V61.83H24.4694V67ZM31.3815 67H32.1515V64.04C32.1515 63.07 32.8115 62.42 33.7015 62.42C34.6215 62.42 35.1315 63.02 35.1315 63.98V67H35.9015V63.79C35.9015 62.56 35.1615 61.72 33.9215 61.72C33.0315 61.72 32.5015 62.17 32.1515 62.73V59.7H31.3815V67ZM40.6536 67.12C42.2136 67.12 43.3636 65.89 43.3636 64.42V64.4C43.3636 62.94 42.2336 61.72 40.6736 61.72C39.1036 61.72 37.9736 62.95 37.9736 64.42V64.44C37.9736 65.9 39.1036 67.12 40.6536 67.12ZM40.6736 66.43C39.5836 66.43 38.7636 65.53 38.7636 64.42V64.4C38.7636 63.31 39.5336 62.4 40.6536 62.4C41.7436 62.4 42.5736 63.31 42.5736 64.42V64.44C42.5736 65.52 41.7936 66.43 40.6736 66.43Z" fill="#A3A3A3"/>
<defs>
<clipPath id="clip0">
<rect width="32" height="32" fill="white" transform="translate(10 10)"/>
</clipPath>
</defs>
</svg>
