<svg width="53" height="70" viewBox="0 0 53 70" fill="none" xmlns="http://www.w3.org/2000/svg">
<circle cx="26.5" cy="26.5" r="26" stroke="#A3A3A3"/>
<g clip-path="url(#clip0)">
<path stroke="#A3A3A3" d="M28.1411 30.2549C28.1411 33.1984 30.5273 35.5846 33.4709 35.5846C36.4142 35.5846 38.8004 33.1984 38.8004 30.2549C38.8004 27.3116 36.4142 24.9253 33.4709 24.9253C30.5286 24.9286 28.1443 27.3128 28.1411 30.2549ZM33.4709 25.9912C35.8257 25.9912 37.7346 27.9 37.7346 30.2549C37.7346 32.6097 35.8257 34.5186 33.4709 34.5186C31.116 34.5186 29.2071 32.6097 29.2071 30.2549C29.2097 27.9013 31.1171 25.9937 33.4709 25.9912Z" fill="#A3A3A3"/>
<path stroke="#A3A3A3" d="M30.4254 40.9144H36.5168V41.9802H30.4254V40.9144Z" fill="#A3A3A3"/>
<path stroke="#A3A3A3" d="M28.1411 38.7825H38.8006V39.8486H28.1411V38.7825Z" fill="#A3A3A3"/>
<path stroke="#A3A3A3" d="M16.4157 38.7825H17.4818V39.8486H16.4157V38.7825Z" fill="#A3A3A3"/>
<path stroke="#A3A3A3" d="M13.2181 39.8483H14.2839V40.9144H13.2181V39.8483Z" fill="#A3A3A3"/>
<path stroke="#A3A3A3" d="M16.4691 35.7834C19.252 30.9366 20.9981 25.5644 21.5967 20.0076L26.5534 24.9349C26.6525 25.0336 26.7865 25.0893 26.9265 25.0899C26.9553 25.0901 26.9843 25.0878 27.0127 25.083C27.1817 25.0555 27.327 24.9484 27.4034 24.7953C28.4081 22.7899 28.0147 20.3663 26.427 18.7818L25.9912 18.3458H29.7399C30.0343 18.346 30.2732 18.1075 30.2732 17.8132C30.2734 17.7556 30.2639 17.6984 30.2459 17.644C29.538 15.5153 27.5461 14.0799 25.3029 14.0821H24.6101L27.2718 11.4049C27.4795 11.1964 27.4786 10.859 27.2701 10.6513C27.2296 10.6111 27.1832 10.5776 27.1322 10.5522C25.126 9.54634 22.701 9.9396 21.1155 11.5281L20.6066 12.0371C20.4406 12.2041 20.2864 12.3822 20.1445 12.5701C20.0043 12.3822 19.8512 12.2041 19.6865 12.0371L19.1776 11.5281C17.5934 9.94068 15.1697 9.54742 13.1647 10.5522C12.9013 10.6838 12.7945 11.0039 12.9261 11.2671C12.9514 11.3181 12.985 11.3645 13.0252 11.4049L15.6899 14.0821H14.9902C12.747 14.0799 10.7549 15.5153 10.0473 17.644C9.95394 17.9231 10.1047 18.2249 10.384 18.3183C10.4384 18.3365 10.4956 18.3458 10.5532 18.3458H14.2983L13.8625 18.7818C12.2748 20.3663 11.8813 22.7899 12.8859 24.7953C12.9624 24.9484 13.1078 25.0555 13.2765 25.083C13.3051 25.0878 13.334 25.0901 13.363 25.0899C13.5038 25.0899 13.6388 25.0342 13.7386 24.9349L18.3543 20.3465C17.7828 25.4537 15.8593 30.316 12.782 34.4318C12.0656 34.2437 11.3393 34.0955 10.6065 33.9885L10.2734 33.9549L10.1668 35.016L10.4775 35.0463C11.0105 35.1227 11.5401 35.2304 12.0669 35.3523C11.9602 35.486 11.8536 35.6219 11.7433 35.7537L12.5608 36.4375C16.6566 31.5678 19.0983 25.5223 19.5332 19.174L20.1467 18.5645L20.6059 19.0211C20.0456 25.8102 17.7153 32.3339 13.8474 37.9415L14.7204 38.5523C15.1394 37.9542 15.5391 37.3334 15.9266 36.7009C18.4197 37.8933 20.621 39.618 22.3755 41.7533L23.1999 41.0779C22.1624 39.8166 20.9738 38.6876 19.6605 37.7166H41.9983V36.6505H18.0815C17.559 36.3351 17.0197 36.0494 16.4691 35.7834ZM26.7308 23.6072L21.0996 18.0084C22.54 17.5784 24.1001 17.9686 25.1683 19.0263L25.6772 19.5355C26.7435 20.5998 27.1469 22.1593 26.7308 23.6072ZM28.9268 17.28H24.5138C23.486 16.7908 22.3265 16.6523 21.2125 16.8861C21.988 15.7955 23.2433 15.1479 24.5815 15.1481H25.301C26.8076 15.1457 28.1963 15.9624 28.9268 17.28ZM21.3585 12.7907L21.8676 12.2817C22.9328 11.2153 24.493 10.8117 25.9415 11.228L22.7821 14.4061C21.7567 14.7834 20.8764 15.4745 20.266 16.3808C20.0181 15.0769 20.427 13.7344 21.3602 12.7907H21.3585ZM18.4225 12.2817L18.9314 12.7907C19.1688 13.033 19.3748 13.3044 19.5444 13.5981C19.3029 14.1595 19.1651 14.7596 19.1372 15.3698C18.6588 14.9518 18.1077 14.6254 17.5117 14.4061L14.3516 11.228C15.7997 10.8119 17.3594 11.2155 18.424 12.2817H18.4225ZM14.9885 15.1481H15.7081C17.0472 15.1468 18.3042 15.7942 19.0806 16.8854C17.9673 16.6525 16.8081 16.791 15.781 17.28H11.3664C12.0965 15.963 13.4842 15.1466 14.9902 15.1481H14.9885ZM13.5623 23.6072C13.1462 22.1593 13.5498 20.5998 14.6161 19.5355L15.125 19.0263C15.8918 18.2615 16.9316 17.8334 18.0148 17.8368C18.4145 17.8371 18.8121 17.894 19.1959 18.0063L13.5623 23.6072Z" fill="#A3A3A3"/>
</g>
<path stroke="#A3A3A3" d="M13.6463 67H14.4363V64.53H16.1363C17.6263 64.53 18.8863 63.75 18.8863 62.24V62.22C18.8863 60.84 17.8463 60 16.2663 60H13.6463V67ZM14.4363 63.81V60.73H16.2063C17.3363 60.73 18.0863 61.25 18.0863 62.25V62.27C18.0863 63.19 17.3263 63.81 16.1663 63.81H14.4363ZM20.9459 67H21.7159V64.94C21.7159 63.38 22.6359 62.57 23.7659 62.57H23.8259V61.74C22.8459 61.71 22.0959 62.32 21.7159 63.18V61.83H20.9459V67ZM27.0348 67.11C27.9548 67.11 28.5448 66.69 28.9048 66.22V67H29.6448V63.84C29.6448 63.19 29.4648 62.68 29.1148 62.33C28.7348 61.95 28.1748 61.76 27.4448 61.76C26.6848 61.76 26.1348 61.92 25.5648 62.19L25.7948 62.82C26.2748 62.59 26.7548 62.44 27.3648 62.44C28.3348 62.44 28.9048 62.92 28.9048 63.85V64.03C28.4348 63.9 27.9848 63.81 27.3148 63.81C26.0048 63.81 25.1048 64.4 25.1048 65.48V65.5C25.1048 66.57 26.0748 67.11 27.0348 67.11ZM27.1848 66.5C26.4948 66.5 25.8848 66.12 25.8848 65.47V65.45C25.8848 64.8 26.4248 64.38 27.3948 64.38C28.0348 64.38 28.5248 64.49 28.9148 64.6V65.1C28.9148 65.92 28.1448 66.5 27.1848 66.5ZM32.0558 60.7H32.9358V59.85H32.0558V60.7ZM32.1058 67H32.8758V61.83H32.1058V67ZM36.9527 67.11C37.8727 67.11 38.4627 66.69 38.8227 66.22V67H39.5627V63.84C39.5627 63.19 39.3827 62.68 39.0327 62.33C38.6527 61.95 38.0927 61.76 37.3627 61.76C36.6027 61.76 36.0527 61.92 35.4827 62.19L35.7127 62.82C36.1927 62.59 36.6727 62.44 37.2827 62.44C38.2527 62.44 38.8227 62.92 38.8227 63.85V64.03C38.3527 63.9 37.9027 63.81 37.2327 63.81C35.9227 63.81 35.0227 64.4 35.0227 65.48V65.5C35.0227 66.57 35.9927 67.11 36.9527 67.11ZM37.1027 66.5C36.4127 66.5 35.8027 66.12 35.8027 65.47V65.45C35.8027 64.8 36.3427 64.38 37.3127 64.38C37.9527 64.38 38.4427 64.49 38.8327 64.6V65.1C38.8327 65.92 38.0627 66.5 37.1027 66.5Z" fill="#A3A3A3"/>
<defs>
<clipPath id="clip0">
<rect width="32" height="32" fill="white" transform="translate(10 10)"/>
</clipPath>
</defs>
</svg>
