<svg width="53" height="70" viewBox="0 0 53 70" fill="none" xmlns="http://www.w3.org/2000/svg">
<circle cx="26.5" cy="26.5" r="26" stroke="#A3A3A3"/>
<path stroke="#A3A3A3" d="M37.5 21.75H37V17.75C36.9984 16.37 35.88 15.2516 34.5 15.25H17.5C16.12 15.2516 15.0016 16.37 15 17.75V21.75H14.5C12.016 21.753 10.003 23.766 10 26.25V33.25H11V36.75H13.5V33.25H38.5V36.75H41V33.25H42V26.25C41.997 23.766 39.984 21.753 37.5 21.75ZM16 17.75C16 16.9216 16.6716 16.25 17.5 16.25H34.5C35.3284 16.25 36 16.9216 36 17.75V21.75H34.5V19.75C34.5 18.9216 33.8284 18.25 33 18.25H28.5C27.6716 18.25 27 18.9216 27 19.75V21.75H25V19.75C25 18.9216 24.3284 18.25 23.5 18.25H19C18.1716 18.25 17.5 18.9216 17.5 19.75V21.75H16V17.75ZM33.5 19.75V21.75H28V19.75C28 19.4739 28.2239 19.25 28.5 19.25H33C33.2761 19.25 33.5 19.4739 33.5 19.75ZM24 19.75V21.75H18.5V19.75C18.5 19.4739 18.7239 19.25 19 19.25H23.5C23.7761 19.25 24 19.4739 24 19.75ZM12.5 35.75H12V33.25H12.5V35.75ZM40 35.75H39.5V33.25H40V35.75ZM41 32.25H11V29.75H41V32.25ZM41 28.75H11V26.25C11.0022 24.3179 12.5679 22.7522 14.5 22.75H37.5C39.4321 22.7522 40.9978 24.3179 41 26.25V28.75Z" fill="#A3A3A3"/>
<path stroke="#A3A3A3" d="M15.3218 67.12C16.5818 67.12 17.4018 66.63 18.1218 65.89L17.6018 65.38C16.9318 66.02 16.3018 66.39 15.3418 66.39C13.7918 66.39 12.6318 65.12 12.6318 63.5V63.48C12.6318 61.87 13.7918 60.61 15.3418 60.61C16.3018 60.61 16.9418 61.01 17.5418 61.57L18.0818 60.99C17.3918 60.32 16.6218 59.88 15.3518 59.88C13.3018 59.88 11.8118 61.52 11.8118 63.5V63.52C11.8118 65.53 13.3018 67.12 15.3218 67.12ZM21.7037 67.11C22.6237 67.11 23.2137 66.69 23.5737 66.22V67H24.3137V63.84C24.3137 63.19 24.1337 62.68 23.7837 62.33C23.4037 61.95 22.8437 61.76 22.1137 61.76C21.3537 61.76 20.8037 61.92 20.2337 62.19L20.4637 62.82C20.9437 62.59 21.4237 62.44 22.0337 62.44C23.0037 62.44 23.5737 62.92 23.5737 63.85V64.03C23.1037 63.9 22.6537 63.81 21.9837 63.81C20.6737 63.81 19.7737 64.4 19.7737 65.48V65.5C19.7737 66.57 20.7437 67.11 21.7037 67.11ZM21.8537 66.5C21.1637 66.5 20.5537 66.12 20.5537 65.47V65.45C20.5537 64.8 21.0937 64.38 22.0637 64.38C22.7037 64.38 23.1937 64.49 23.5837 64.6V65.1C23.5837 65.92 22.8137 66.5 21.8537 66.5ZM26.7047 67H27.4747V64.05C27.4747 63.1 28.0947 62.42 28.9147 62.42C29.7447 62.42 30.2447 62.99 30.2447 63.96V67H31.0047V64.02C31.0047 63 31.6647 62.42 32.4347 62.42C33.2747 62.42 33.7747 62.98 33.7747 63.98V67H34.5447V63.8C34.5447 62.51 33.8247 61.72 32.6247 61.72C31.7147 61.72 31.1847 62.18 30.8047 62.75C30.5247 62.16 29.9847 61.72 29.1447 61.72C28.2747 61.72 27.8247 62.18 27.4747 62.7V61.83H26.7047V67ZM38.4771 67.11C39.3971 67.11 39.9871 66.69 40.3471 66.22V67H41.0871V63.84C41.0871 63.19 40.9071 62.68 40.5571 62.33C40.1771 61.95 39.6171 61.76 38.8871 61.76C38.1271 61.76 37.5771 61.92 37.0071 62.19L37.2371 62.82C37.7171 62.59 38.1971 62.44 38.8071 62.44C39.7771 62.44 40.3471 62.92 40.3471 63.85V64.03C39.8771 63.9 39.4271 63.81 38.7571 63.81C37.4471 63.81 36.5471 64.4 36.5471 65.48V65.5C36.5471 66.57 37.5171 67.11 38.4771 67.11ZM38.6271 66.5C37.9371 66.5 37.3271 66.12 37.3271 65.47V65.45C37.3271 64.8 37.8671 64.38 38.8371 64.38C39.4771 64.38 39.9671 64.49 40.3571 64.6V65.1C40.3571 65.92 39.5871 66.5 38.6271 66.5Z" fill="#A3A3A3"/>
</svg>
