<svg width="53" height="70" viewBox="0 0 53 70" fill="none" xmlns="http://www.w3.org/2000/svg">
<circle cx="26.5" cy="26.5" r="26" stroke="#A3A3A3"/>
<g clip-path="url(#clip0)">
<path stroke="#A3A3A3" d="M42 18.5231C41.9984 18.4614 41.9862 18.4005 41.9638 18.3429C41.9573 18.3281 41.9503 18.3132 41.9424 18.2992C41.9336 18.2781 41.9237 18.2572 41.9125 18.2372L39.7792 15.0372C39.6799 14.8882 39.5125 14.7992 39.3333 14.7999H12.6667C12.4883 14.7999 12.3219 14.889 12.2229 15.0372L10.0896 18.2372C10.0784 18.2572 10.0685 18.2781 10.0596 18.2992C10.0518 18.3132 10.0448 18.3281 10.0383 18.3429C10.0151 18.4002 10.0021 18.4611 10 18.5231V18.5333V21.7333C10 22.0278 10.2388 22.2666 10.5333 22.2666H11.0667V36.6666C11.0667 36.9611 11.3055 37.1999 11.6 37.1999H14.8C15.0945 37.1999 15.3333 36.9611 15.3333 36.6666V24.3999H36.6667V36.6666C36.6667 36.9611 36.9055 37.1999 37.2 37.1999H40.4C40.6945 37.1999 40.9333 36.9611 40.9333 36.6666V22.2666H41.4667C41.7612 22.2666 42 22.0278 42 21.7333V18.5333C42 18.5296 42 18.5268 42 18.5231ZM12.9521 15.8666H39.0479L40.4703 17.9999H11.5297L12.9521 15.8666ZM39.8667 36.1333H37.7333V23.8666C37.7333 23.5721 37.4945 23.3333 37.2 23.3333H14.8C14.5055 23.3333 14.2667 23.5721 14.2667 23.8666V36.1333H12.1333V22.2666H39.8667V36.1333ZM40.9333 21.1999H11.0667V19.0666H40.9333V21.1999Z" fill="#A3A3A3"/>
</g>
<path stroke="#A3A3A3" d="M13.6795 67H14.4495V61.34L16.9995 65.08H17.0395L19.5895 61.33V67H20.3795V60H19.5795L17.0295 63.82L14.4795 60H13.6795V67ZM25.2411 67.12C26.2311 67.12 26.8511 66.74 27.3711 66.15L26.8911 65.72C26.4611 66.16 25.9811 66.45 25.2611 66.45C24.3411 66.45 23.5511 65.82 23.4411 64.7H27.5411C27.5511 64.61 27.5511 64.56 27.5511 64.45C27.5511 62.94 26.6711 61.72 25.1411 61.72C23.7011 61.72 22.6611 62.92 22.6611 64.41V64.43C22.6611 66.03 23.8311 67.12 25.2411 67.12ZM23.4411 64.13C23.5511 63.13 24.2111 62.37 25.1211 62.37C26.1611 62.37 26.6911 63.2 26.7711 64.13H23.4411ZM31.3591 67.1C32.3891 67.1 33.1991 66.53 33.1991 65.55V65.53C33.1991 64.6 32.3391 64.29 31.5391 64.05C30.8491 63.84 30.2091 63.65 30.2091 63.16V63.14C30.2091 62.71 30.5991 62.39 31.2091 62.39C31.7191 62.39 32.2591 62.58 32.7391 62.89L33.0891 62.31C32.5591 61.96 31.8691 61.74 31.2291 61.74C30.2091 61.74 29.4691 62.33 29.4691 63.22V63.24C29.4691 64.2 30.3791 64.46 31.1791 64.7C31.8591 64.89 32.4691 65.1 32.4691 65.61V65.63C32.4691 66.14 32.0291 66.45 31.3991 66.45C30.7891 66.45 30.1691 66.22 29.6091 65.79L29.2191 66.34C29.8091 66.81 30.6091 67.1 31.3591 67.1ZM36.9195 67.11C37.8395 67.11 38.4295 66.69 38.7895 66.22V67H39.5295V63.84C39.5295 63.19 39.3495 62.68 38.9995 62.33C38.6195 61.95 38.0595 61.76 37.3295 61.76C36.5695 61.76 36.0195 61.92 35.4495 62.19L35.6795 62.82C36.1595 62.59 36.6395 62.44 37.2495 62.44C38.2195 62.44 38.7895 62.92 38.7895 63.85V64.03C38.3195 63.9 37.8695 63.81 37.1995 63.81C35.8895 63.81 34.9895 64.4 34.9895 65.48V65.5C34.9895 66.57 35.9595 67.11 36.9195 67.11ZM37.0695 66.5C36.3795 66.5 35.7695 66.12 35.7695 65.47V65.45C35.7695 64.8 36.3095 64.38 37.2795 64.38C37.9195 64.38 38.4095 64.49 38.7995 64.6V65.1C38.7995 65.92 38.0295 66.5 37.0695 66.5Z" fill="#A3A3A3"/>
<defs>
<clipPath id="clip0">
<rect width="32" height="32" fill="white" transform="translate(10 10)"/>
</clipPath>
</defs>
</svg>
